# xmcd
#
# Track frame offsets:
#	150
#	19585
#	40142
#	55202
#	74977
#	98165
#	119582
#	136130
#	151077
#	168990
#
# Disc length: 2573 seconds
#
# Revision: 0
# Processed by: cddbd v1.5.2PL0 Copyright (c) Steve Scherf et al.
# Submitted via: audiograbber 1.83.01
#
DISCID=840a0b0a
DTITLE=Ronnie Milsap - Lost In The Fifties Tonight
DYEAR=1986
DGENRE=Country
TTITLE0=Lost In The Fifties Tonight
TTITLE1=In Love
TTITLE2=Old Fashioned Girl Like You
TTITLE3=I Heard It Through The Grapevine
TTITLE4=Don't Take It Tonight
TTITLE5=How Do I Turn You On
TTITLE6=Happy, Happy Birthday
TTITLE7=Nashville Moon
TTITLE8=I Remember The Good Times
TTITLE9=Money
EXTD=
EXTT0=
EXTT1=
EXTT2=
EXTT3=
EXTT4=
EXTT5=
EXTT6=
EXTT7=
EXTT8=
EXTT9=
PLAYORDER=
